<svg width="174" height="174" viewBox="0 0 174 174" fill="none" xmlns="http://www.w3.org/2000/svg">
<path d="M156.328 103.657C165.714 65.1812 142.132 26.3815 103.657 16.9953C65.1812 7.60902 26.3815 31.1906 16.9953 69.6662C7.60904 108.142 31.1907 146.942 69.6663 156.328C108.142 165.714 146.942 142.132 156.328 103.657Z" fill="#7AFFDC"/>
<path d="M86.6657 140.273C57.1037 140.273 33.0537 116.223 33.0537 86.661C33.0537 57.099 57.1037 33.049 86.6657 33.049C116.228 33.049 140.278 57.099 140.278 86.661C140.278 116.223 116.227 140.273 86.6657 140.273Z" fill="#14E8AF"/>
<path d="M82.3862 150.024C81.5662 149.964 80.9362 149.254 80.9962 148.424C81.0462 147.594 81.7562 146.974 82.5862 147.024C83.4162 147.084 84.0362 147.794 83.9862 148.624C83.9362 149.414 83.2762 150.024 82.4862 150.024C82.4562 150.024 82.4262 150.024 82.3862 150.024ZM97.8562 147.674C97.6862 146.864 98.2062 146.064 99.0162 145.894C99.8262 145.734 100.625 146.254 100.796 147.064C100.955 147.874 100.445 148.664 99.6252 148.834C99.5252 148.854 99.4262 148.864 99.3252 148.864C98.6252 148.864 98.0062 148.384 97.8562 147.674ZM65.4562 146.534C64.6762 146.254 64.2662 145.404 64.5462 144.624C64.8262 143.844 65.6762 143.434 66.4562 143.704C67.2362 143.984 67.6462 144.844 67.3762 145.624C67.1562 146.234 66.5762 146.624 65.9562 146.624C65.7962 146.624 65.6262 146.594 65.4562 146.534ZM113.896 142.394C113.506 141.664 113.796 140.754 114.536 140.374C115.266 139.994 116.177 140.284 116.557 141.014C116.937 141.754 116.647 142.654 115.916 143.034C115.696 143.154 115.456 143.204 115.227 143.204C114.686 143.204 114.165 142.914 113.896 142.394ZM50.1062 138.584C49.4262 138.104 49.2662 137.174 49.7462 136.494C50.2262 135.824 51.1562 135.654 51.8362 136.134C52.5062 136.614 52.6762 137.544 52.1962 138.224C51.9062 138.644 51.4362 138.864 50.9662 138.864C50.6662 138.864 50.3662 138.774 50.1062 138.584ZM127.906 132.984C127.336 132.374 127.366 131.424 127.976 130.864C128.576 130.294 129.526 130.324 130.096 130.934C130.665 131.534 130.625 132.484 130.026 133.054C129.736 133.324 129.366 133.454 129.006 133.454C128.596 133.454 128.196 133.294 127.906 132.984ZM37.4562 126.804C36.9362 126.164 37.0262 125.214 37.6762 124.694C38.3162 124.164 39.2562 124.264 39.7762 124.904C40.3062 125.544 40.2062 126.494 39.5662 127.014C39.2862 127.244 38.9562 127.354 38.6262 127.354C38.1862 127.354 37.7562 127.164 37.4562 126.804ZM138.875 120.144C138.165 119.714 137.945 118.794 138.375 118.084C138.806 117.374 139.726 117.154 140.436 117.584C141.146 118.014 141.366 118.934 140.936 119.644C140.656 120.104 140.156 120.364 139.656 120.364C139.386 120.364 139.116 120.294 138.875 120.144ZM28.4462 112.054C28.1162 111.294 28.4562 110.414 29.2162 110.084C29.9762 109.744 30.8662 110.094 31.1962 110.854C31.5262 111.614 31.1762 112.494 30.4162 112.824C30.2262 112.914 30.0162 112.954 29.8162 112.954C29.2462 112.954 28.6862 112.614 28.4462 112.054ZM145.976 104.824C145.176 104.604 144.716 103.774 144.936 102.984V102.974C145.165 102.184 145.986 101.714 146.786 101.934C147.586 102.164 148.047 102.984 147.826 103.784C147.646 104.444 147.036 104.884 146.386 104.884C146.245 104.884 146.116 104.864 145.976 104.824ZM23.7662 95.4139C23.6462 94.5939 24.2262 93.8339 25.0462 93.7229C25.8662 93.6129 26.6162 94.1829 26.7362 95.0029C26.8462 95.8229 26.2762 96.5829 25.4562 96.6929C25.3862 96.7029 25.3162 96.7029 25.2462 96.7029C24.5062 96.7039 23.8662 96.1639 23.7662 95.4139ZM147.165 86.6639C147.165 86.6339 147.165 86.6039 147.165 86.5739C147.165 86.5339 147.165 86.4939 147.165 86.4539C147.155 85.6339 147.825 84.9539 148.655 84.9539C149.485 84.9539 150.155 85.6239 150.165 86.4439C150.165 86.4839 150.165 86.5239 150.155 86.5539C150.165 86.5939 150.165 86.6239 150.165 86.6639C150.165 87.4929 149.495 88.1639 148.665 88.1639C147.835 88.1639 147.165 87.4939 147.165 86.6639ZM25.0162 79.8139C24.1962 79.7039 23.6262 78.9539 23.7362 78.1339C23.8462 77.3139 24.5962 76.7339 25.4162 76.8439C26.2362 76.9539 26.8162 77.7039 26.7062 78.5339C26.6062 79.2839 25.9562 79.8339 25.2162 79.8339C25.1562 79.8339 25.0862 79.8239 25.0162 79.8139ZM144.886 70.1439C144.656 69.3539 145.115 68.5239 145.915 68.2939C146.716 68.0739 147.546 68.5339 147.766 69.3339C147.995 70.1239 147.536 70.9539 146.736 71.1839C146.596 71.2239 146.456 71.2339 146.326 71.2339C145.665 71.2339 145.066 70.8039 144.886 70.1439ZM29.1362 63.4439C28.3762 63.1139 28.0262 62.2339 28.3562 61.4639C28.6862 60.7039 29.5662 60.3539 30.3262 60.6839C31.0862 61.0139 31.4362 61.9039 31.1162 62.6639C30.8662 63.2239 30.3162 63.5639 29.7362 63.5639C29.5362 63.5639 29.3362 63.5239 29.1362 63.4439ZM138.266 55.0639C137.835 54.3639 138.056 53.4339 138.766 53.0039C139.466 52.5739 140.396 52.7939 140.826 53.4939C141.257 54.2039 141.036 55.1239 140.326 55.5639C140.086 55.7139 139.816 55.7839 139.547 55.7839C139.046 55.7839 138.556 55.5239 138.266 55.0639ZM37.5462 48.7939C36.9062 48.2739 36.8062 47.3239 37.3262 46.6839C37.8462 46.0439 38.7862 45.9439 39.4362 46.4639C40.0762 46.9939 40.1762 47.9339 39.6562 48.5739C39.3562 48.9439 38.9262 49.1339 38.4862 49.1339C38.1562 49.1339 37.8262 49.0239 37.5462 48.7939ZM127.826 42.3239C127.226 41.7639 127.186 40.8139 127.746 40.2039C128.316 39.5939 129.267 39.5639 129.866 40.1239C130.476 40.6939 130.516 41.6439 129.946 42.2439C129.656 42.5639 129.246 42.7239 128.846 42.7239C128.486 42.7239 128.116 42.5939 127.826 42.3239ZM49.5762 36.9539C49.0962 36.2739 49.2562 35.3439 49.9362 34.8539C50.6062 34.3739 51.5462 34.5339 52.0262 35.2139C52.5062 35.8839 52.3462 36.8239 51.6662 37.3039C51.4062 37.4939 51.0962 37.5839 50.7962 37.5839C50.3262 37.5839 49.8662 37.3639 49.5762 36.9539ZM114.346 32.8539C113.616 32.4739 113.326 31.5739 113.705 30.8339C114.085 30.0939 114.985 29.8039 115.726 30.1839C116.466 30.5639 116.756 31.4739 116.366 32.2039C116.106 32.7239 115.576 33.0239 115.036 33.0239C114.806 33.0239 114.566 32.9639 114.346 32.8539ZM64.3462 28.7839C64.0662 28.0039 64.4762 27.1439 65.2562 26.8639C66.0362 26.5839 66.8962 26.9939 67.1762 27.7739C67.4462 28.5439 67.0462 29.4039 66.2662 29.6839C66.0962 29.7439 65.9262 29.7739 65.7662 29.7739C65.1462 29.7739 64.5662 29.3939 64.3462 28.7839ZM98.8162 27.3839C98.0062 27.2139 97.4862 26.4239 97.6462 25.6139C97.8162 24.8039 98.6062 24.2739 99.4162 24.4439C100.227 24.6039 100.757 25.4039 100.586 26.2139C100.446 26.9239 99.8172 27.4139 99.1162 27.4139C99.0162 27.4139 98.9152 27.4039 98.8162 27.3839ZM80.7762 24.9239C80.7262 24.0939 81.3462 23.3739 82.1662 23.3139C82.9962 23.2639 83.7162 23.8839 83.7762 24.7139C83.8262 25.5339 83.2062 26.2539 82.3762 26.3139C82.3462 26.3139 82.3062 26.3139 82.2762 26.3139C81.4962 26.3139 80.8362 25.7139 80.7762 24.9239Z" fill="#17BF92"/>
<g opacity="0.6">
<path d="M69.5235 111L55.8915 66.2H65.7475L73.0435 91.224C73.3422 92.12 73.5982 93.1013 73.8115 94.168C74.0675 95.192 74.2595 96.1947 74.3875 97.176C74.5582 98.1147 74.6862 99.0107 74.7715 99.864C74.8995 100.675 75.0062 101.357 75.0915 101.912L73.5555 101.848C73.9395 100.056 74.2595 98.5627 74.5155 97.368C74.7715 96.1307 75.0062 95.0427 75.2195 94.104C75.4755 93.1227 75.7742 92.1413 76.1155 91.16L83.1555 72.664H91.0915L98.0035 91.16C98.5155 92.44 98.9208 93.6773 99.2195 94.872C99.5608 96.024 99.8382 97.1547 100.052 98.264C100.265 99.3307 100.478 100.419 100.692 101.528L99.2835 101.784C99.4115 100.888 99.4968 100.12 99.5395 99.48C99.6248 98.7973 99.6888 98.1787 99.7315 97.624C99.8168 97.0693 99.9022 96.5147 99.9875 95.96C100.073 95.3627 100.201 94.68 100.372 93.912C100.542 93.1013 100.798 92.1627 101.14 91.096L108.372 66.2H118.1L104.34 111H97.2355L86.1635 84.504L87.1875 84.632L76.8835 111H69.5235Z" fill="#00100C"/>
</g>
<path d="M86.6654 159.469C46.5184 159.469 13.8584 126.808 13.8584 86.6619C13.8584 46.5159 46.5194 13.8549 86.6654 13.8549C126.811 13.8549 159.472 46.5169 159.472 86.6619C159.472 126.808 126.811 159.469 86.6654 159.469ZM86.6654 16.0489C47.7294 16.0489 16.0534 47.7259 16.0534 86.6609C16.0534 125.597 47.7294 157.273 86.6654 157.273C125.601 157.273 157.277 125.597 157.277 86.6609C157.277 47.7259 125.601 16.0489 86.6654 16.0489Z" fill="#00D39B"/>
</svg>
