<svg width="676" height="610" viewBox="0 0 676 610" fill="none" xmlns="http://www.w3.org/2000/svg">
<path d="M478.063 413.257L477.414 414.381L597.458 483.69L598.107 482.566L478.063 413.257Z" fill="#05D2B0"/>
<path d="M648.42 454.285L610.062 432.139C606.563 430.118 601.925 428.793 597.002 428.405L555.834 425.171C550.722 424.771 545.89 423.385 542.227 421.27L503.869 399.124L504.517 398L542.877 420.146C546.374 422.167 551.012 423.492 555.935 423.878L597.104 427.113C602.216 427.514 607.049 428.902 610.712 431.015L649.068 453.161L648.42 454.285Z" fill="#05D2B0"/>
<path d="M546.54 513.105L508.182 490.959C504.446 488.801 501.99 485.919 501.265 482.847L495.663 459.078C495.021 456.355 492.782 453.769 489.358 451.792L451 429.646L451.648 428.521L490.006 450.668C493.744 452.826 496.201 455.707 496.925 458.78L502.527 482.549C503.169 485.271 505.408 487.858 508.832 489.835L547.19 511.981L546.54 513.105Z" fill="#05D2B0"/>
<path d="M572.009 498.4L531.125 474.795C529.043 473.593 527.37 472.191 526.156 470.629L509.692 449.456C508.579 448.028 507.032 446.736 505.1 445.619L464.216 422.014L464.864 420.89L505.748 444.495C507.83 445.696 509.501 447.097 510.717 448.661L527.181 469.834C528.292 471.26 529.838 472.553 531.775 473.671L572.659 497.276L572.009 498.4Z" fill="#05D2B0"/>
<path d="M622.952 468.989L582.066 445.384C580.112 444.254 577.835 443.35 575.298 442.691L538.628 433.181C535.982 432.497 533.596 431.547 531.535 430.358L490.651 406.753L491.299 405.628L532.185 429.233C534.143 430.365 536.422 431.269 538.953 431.927L575.623 441.436C578.275 442.123 580.661 443.073 582.716 444.262L623.602 467.867L622.952 468.989Z" fill="#05D2B0"/>
<path d="M179.627 488L65 554.072L65.599 555.111L180.226 489.039L179.627 488Z" fill="#0AEFB2"/>
<path d="M196.013 497.459L81.3857 563.531L81.9848 564.571L196.612 498.499L196.013 497.459Z" fill="#0AEFB2"/>
<path d="M212.397 506.92L97.7705 572.992L98.3695 574.031L212.996 507.96L212.397 506.92Z" fill="#0AEFB2"/>
<path d="M228.785 516.38L114.156 582.453L114.755 583.492L229.384 517.42L228.785 516.38Z" fill="#0AEFB2"/>
<path d="M263.241 352.918C258.485 352.918 253.733 351.873 250.112 349.784L161.833 298.814C158.169 296.699 156.153 293.839 156.153 290.758C156.153 287.68 158.169 284.817 161.833 282.704L249.645 231.642C256.888 227.463 268.669 227.463 275.907 231.642L364.186 282.61C367.85 284.725 369.866 287.585 369.866 290.664C369.866 293.744 367.848 296.605 364.186 298.72L276.374 349.782C272.754 351.875 267.996 352.918 263.241 352.918ZM262.776 230.127C258.318 230.127 253.861 231.107 250.468 233.065L162.656 284.127C159.522 285.937 157.797 288.292 157.797 290.76C157.797 293.229 159.522 295.586 162.653 297.394L250.933 348.364C257.721 352.284 268.763 352.279 275.551 348.364L363.363 297.302C366.497 295.492 368.223 293.137 368.223 290.669C368.223 288.2 366.497 285.845 363.366 284.038L275.084 233.068C271.691 231.108 267.234 230.127 262.776 230.127Z" fill="#03A7D3"/>
<path d="M369.476 262.81L369.461 220.484L315.974 227.621L275.926 204.498C268.901 200.442 257.512 200.442 250.487 204.498L244.25 208.461L157.411 220.048V262.87C157.411 262.895 157.411 262.919 157.411 262.94V263.141L157.443 263.137C157.542 265.716 159.262 268.279 162.672 270.249L250.954 321.217C257.979 325.272 269.368 325.272 276.393 321.217L364.207 270.152C367.607 268.19 369.323 265.636 369.435 263.064L369.476 263.059V262.81Z" fill="url(#paint0_linear_175_600)"/>
<path d="M364.208 212.822L275.929 161.854C268.904 157.799 257.515 157.799 250.49 161.854L162.675 212.916C155.65 216.972 155.65 223.548 162.675 227.603L250.957 278.571C257.982 282.627 269.371 282.627 276.396 278.571L364.21 227.509C371.233 223.453 371.233 216.878 364.208 212.822Z" fill="url(#paint1_radial_175_600)"/>
<path d="M364.208 224.943L276.393 276.005C269.368 280.061 257.979 280.061 250.954 276.005L162.672 225.038C159.727 223.337 158.033 221.192 157.559 218.976C156.901 222.044 158.595 225.246 162.672 227.601L250.954 278.571C257.979 282.627 269.368 282.627 276.393 278.571L364.208 227.506C368.288 225.152 369.979 221.947 369.321 218.881C368.847 221.098 367.153 223.245 364.208 224.943Z" fill="white"/>
<path d="M288.264 289.87L284.085 292.283V287.458L288.264 285.045V289.87Z" fill="white"/>
<path d="M297.008 284.823L292.829 287.235V282.41L297.008 279.997V284.823Z" fill="white"/>
<path d="M305.751 279.775L301.571 282.187V277.362L305.751 274.949V279.775Z" fill="white"/>
<path d="M298.603 293.68L294.424 296.093V291.267L298.603 288.854V293.68Z" fill="white"/>
<path d="M306.3 289.237L302.121 291.65V286.822L306.3 284.409V289.237Z" fill="white"/>
<path d="M333.796 263.583L329.616 265.996V261.17L333.796 258.757V263.583Z" fill="white"/>
<path d="M357.88 249.677L353.7 252.09V247.264L357.88 244.852V249.677Z" fill="white"/>
<path d="M314.495 274.727L310.315 277.14V272.314L314.495 269.901V274.727Z" fill="white"/>
<path opacity="0.4" d="M258.447 257.04L199.053 222.749C196.638 221.355 196.943 218.92 199.728 217.311L257.767 183.801C260.555 182.192 264.77 182.018 267.185 183.412L326.58 217.703C328.995 219.097 328.69 221.531 325.904 223.141L267.865 256.65C265.078 258.26 260.862 258.434 258.447 257.04Z" fill="#00261C"/>
<path d="M235.08 294.158L186.068 265.861C184.899 265.186 183.95 263.374 183.95 261.813V258.173C183.95 256.612 184.899 255.896 186.068 256.571L235.08 284.868C236.249 285.543 237.197 287.356 237.197 288.914V292.554C237.197 294.117 236.251 294.834 235.08 294.158Z" fill="white"/>
<path d="M369.476 183.403L369.461 141.077L315.974 148.213L275.926 125.088C268.901 121.032 257.512 121.032 250.487 125.088L244.25 129.052L157.411 140.639V183.461C157.411 183.485 157.411 183.509 157.411 183.531V183.732L157.443 183.727C157.542 186.307 159.262 188.869 162.672 190.839L250.954 241.807C257.979 245.863 269.368 245.863 276.393 241.807L364.207 190.742C367.607 188.78 369.323 186.227 369.435 183.654L369.476 183.649V183.403Z" fill="url(#paint2_linear_175_600)"/>
<path d="M364.208 133.417L275.929 82.4497C268.904 78.3937 257.515 78.3937 250.49 82.4497L162.675 133.512C155.65 137.568 155.65 144.143 162.675 148.199L250.957 199.166C257.982 203.222 269.371 203.222 276.396 199.166L364.21 148.104C371.233 144.048 371.233 137.473 364.208 133.417Z" fill="url(#paint3_radial_175_600)"/>
<path opacity="0.4" d="M322.156 136.501L270.716 106.803C266.624 104.438 259.986 104.438 255.894 106.803L204.725 136.556C200.633 138.918 200.633 142.752 204.725 145.114L256.165 174.812C260.257 177.176 266.895 177.176 270.987 174.812L322.156 145.058C326.251 142.696 326.251 138.865 322.156 136.501Z" fill="#00261C"/>
<path d="M364.208 145.54L276.393 196.602C269.368 200.658 257.979 200.658 250.954 196.602L162.672 145.634C159.727 143.933 158.033 141.789 157.559 139.572C156.901 142.64 158.595 145.842 162.672 148.197L250.954 199.167C257.979 203.223 269.368 203.223 276.393 199.167L364.208 148.105C368.288 145.75 369.979 142.546 369.321 139.48C368.847 141.694 367.153 143.838 364.208 145.54Z" fill="white"/>
<path d="M288.264 210.463L284.085 212.878V208.052L288.264 205.637V210.463Z" fill="white"/>
<path d="M297.008 205.417L292.829 207.83V203.005L297.008 200.589V205.417Z" fill="white"/>
<path d="M305.751 200.369L301.571 202.782V197.957L305.751 195.544V200.369Z" fill="white"/>
<path d="M298.603 214.275L294.424 216.687V211.862L298.603 209.449V214.275Z" fill="white"/>
<path d="M306.3 209.829L302.121 212.242V207.417L306.3 205.004V209.829Z" fill="white"/>
<path d="M333.796 184.178L329.616 186.59V181.765L333.796 179.352V184.178Z" fill="white"/>
<path d="M357.88 170.272L353.7 172.685V167.859L357.88 165.446V170.272Z" fill="white"/>
<path d="M314.495 195.322L310.315 197.734V192.909L314.495 190.496V195.322Z" fill="white"/>
<path d="M369.476 103.997L369.461 61.6715L315.974 68.8081L275.926 45.6826C268.901 41.6266 257.512 41.6266 250.487 45.6826L244.25 49.6465L157.411 61.2335V104.055C157.411 104.08 157.411 104.104 157.411 104.126V104.326L157.443 104.322C157.542 106.901 159.262 109.464 162.672 111.434L250.954 162.402C257.979 166.458 269.368 166.458 276.393 162.402L364.207 111.337C367.607 109.375 369.323 106.821 369.435 104.249L369.476 104.244V103.997Z" fill="url(#paint4_linear_175_600)"/>
<path d="M364.208 54.0096L275.929 3.04194C268.904 -1.01398 257.515 -1.01398 250.49 3.04194L162.675 54.1039C155.65 58.1599 155.65 64.735 162.675 68.7909L250.957 119.759C257.982 123.814 269.371 123.814 276.396 119.759L364.21 68.6965C371.233 64.6406 371.233 58.0655 364.208 54.0096Z" fill="url(#paint5_radial_175_600)"/>
<path d="M364.208 66.1319L276.393 117.194C269.368 121.25 257.979 121.25 250.954 117.194L162.672 66.2263C159.727 64.5251 158.033 62.3809 157.559 60.1666C156.901 63.2352 158.595 66.4369 162.672 68.7915L250.954 119.762C257.979 123.817 269.368 123.817 276.393 119.762L364.208 68.6972C368.288 66.3425 369.979 63.1384 369.321 60.0723C368.847 62.2866 367.153 64.4331 364.208 66.1319Z" fill="white"/>
<path d="M288.264 131.058L284.085 133.471V128.645L288.264 126.232V131.058Z" fill="white"/>
<path d="M297.008 126.01L292.829 128.423V123.597L297.008 121.185V126.01Z" fill="white"/>
<path d="M305.751 120.962L301.571 123.375V118.549L305.751 116.137V120.962Z" fill="white"/>
<path d="M298.603 134.867L294.424 137.28V132.455L298.603 130.042V134.867Z" fill="white"/>
<path d="M306.3 130.425L302.121 132.837V128.012L306.3 125.597V130.425Z" fill="white"/>
<path d="M333.796 104.77L329.616 107.183V102.358L333.796 99.9448V104.77Z" fill="white"/>
<path d="M357.88 90.8645L353.7 93.2773V88.4518L357.88 86.0391V90.8645Z" fill="white"/>
<path d="M314.495 115.914L310.315 118.327V113.502L314.495 111.089V115.914Z" fill="white"/>
<path d="M107.087 443.264C102.332 443.264 97.5768 442.219 93.9589 440.13L5.67974 389.16C2.01586 387.045 0 384.185 0 381.106C0 378.026 2.01828 375.165 5.67974 373.05L93.4919 321.988C100.732 317.804 112.513 317.806 119.754 321.986L208.033 372.956C211.697 375.071 213.713 377.931 213.713 381.009C213.713 384.09 211.697 386.951 208.033 389.066L120.221 440.128C116.6 442.221 111.843 443.264 107.087 443.264ZM106.623 320.471C102.165 320.471 97.7075 321.451 94.3122 323.411L6.50011 374.473C3.36621 376.283 1.64076 378.64 1.64076 381.109C1.64076 383.577 3.36621 385.932 6.49769 387.74L94.7769 438.71C101.565 442.628 112.607 442.628 119.396 438.71L207.208 387.648C210.342 385.837 212.067 383.48 212.067 381.012C212.067 378.544 210.342 376.189 207.21 374.381L118.931 323.414C115.538 321.451 111.08 320.471 106.623 320.471Z" fill="#ACEDFF"/>
<path d="M213.322 353.153L213.308 310.827L159.821 317.964L119.772 294.841C112.747 290.785 101.359 290.785 94.3335 294.841L88.0971 298.805L1.25781 310.392V353.214C1.25781 353.238 1.25781 353.262 1.25781 353.284V353.485L1.28927 353.48C1.38849 356.06 3.10912 358.622 6.5189 360.592L94.7981 411.56C101.823 415.616 113.212 415.616 120.237 411.56L208.052 360.495C211.452 358.533 213.168 355.98 213.279 353.407L213.322 353.402V353.153Z" fill="url(#paint6_linear_175_600)"/>
<path d="M208.055 303.168L119.775 252.2C112.75 248.144 101.362 248.144 94.3364 252.2L6.52188 303.262C-0.503385 307.318 -0.503385 313.893 6.52188 317.949L94.801 368.917C101.826 372.973 113.215 372.973 120.24 368.917L208.055 317.855C215.08 313.799 215.08 307.224 208.055 303.168Z" fill="url(#paint7_radial_175_600)"/>
<path d="M208.054 315.289L120.239 366.351C113.214 370.407 101.825 370.407 94.8002 366.351L6.52105 315.384C3.57591 313.682 1.88191 311.538 1.40759 309.321C0.749354 312.39 2.44335 315.592 6.52105 317.946L94.8002 368.916C101.825 372.972 113.214 372.972 120.239 368.916L208.054 317.852C212.134 315.497 213.826 312.293 213.167 309.227C212.693 311.444 210.999 313.588 208.054 315.289Z" fill="white"/>
<path d="M132.111 380.216L127.932 382.629V377.803L132.111 375.391V380.216Z" fill="white"/>
<path d="M140.855 375.168L136.676 377.581V372.755L140.855 370.343V375.168Z" fill="white"/>
<path d="M149.595 370.12L145.418 372.533V367.708L149.595 365.295V370.12Z" fill="white"/>
<path d="M142.451 384.026L138.271 386.438V381.613L142.451 379.2V384.026Z" fill="white"/>
<path d="M150.147 379.58L145.968 381.993V377.168L150.147 374.755V379.58Z" fill="white"/>
<path d="M177.642 353.928L173.463 356.341V351.515L177.642 349.103V353.928Z" fill="white"/>
<path d="M201.726 340.023L197.547 342.435V337.61L201.726 335.197V340.023Z" fill="white"/>
<path d="M158.341 365.072L154.162 367.485V362.659L158.341 360.247V365.072Z" fill="white"/>
<path opacity="0.4" d="M102.295 347.386L42.9004 313.094C40.4853 311.7 40.7902 309.266 43.5756 307.657L101.614 274.147C104.402 272.538 108.618 272.363 111.033 273.757L170.427 308.049C172.842 309.443 172.54 311.877 169.752 313.486L111.713 346.996C108.925 348.605 104.707 348.78 102.295 347.386Z" fill="#06033E"/>
<path d="M78.9266 384.502L29.9144 356.205C28.7455 355.53 27.7969 353.717 27.7969 352.158V348.519C27.7969 346.958 28.7455 346.242 29.9144 346.917L78.9266 375.214C80.0955 375.889 81.0441 377.702 81.0441 379.262V382.902C81.0441 384.461 80.0955 385.177 78.9266 384.502Z" fill="white"/>
<path d="M213.322 273.748L213.308 231.423L159.821 238.559L119.772 215.436C112.747 211.38 101.359 211.38 94.3335 215.436L88.0971 219.4L1.25781 230.987V273.809C1.25781 273.833 1.25781 273.857 1.25781 273.879V274.08L1.28927 274.075C1.38849 276.655 3.10912 279.218 6.5189 281.187L94.7981 332.155C101.823 336.211 113.212 336.211 120.237 332.155L208.052 281.091C211.452 279.128 213.168 276.575 213.279 274.002L213.322 273.998V273.748Z" fill="url(#paint8_linear_175_600)"/>
<path d="M208.055 223.761L119.775 172.793C112.75 168.737 101.362 168.737 94.3364 172.793L6.52188 223.855C-0.503385 227.911 -0.503385 234.486 6.52188 238.542L94.801 289.512C101.826 293.568 113.215 293.568 120.24 289.512L208.055 238.45C215.08 234.394 215.08 227.816 208.055 223.761Z" fill="url(#paint9_radial_175_600)"/>
<path opacity="0.4" d="M166.003 226.847L114.563 197.148C110.471 194.784 103.833 194.784 99.7406 197.148L48.5721 226.902C44.4799 229.266 44.4799 233.097 48.5721 235.459L100.012 265.158C104.104 267.522 110.742 267.522 114.834 265.158L166.003 235.404C170.097 233.042 170.097 229.211 166.003 226.847Z" fill="#06033E"/>
<path d="M208.054 235.881L120.239 286.943C113.214 290.999 101.825 290.999 94.8002 286.943L6.52105 235.976C3.57591 234.275 1.88191 232.13 1.40759 229.914C0.749354 232.982 2.44335 236.184 6.52105 238.539L94.8002 289.509C101.825 293.565 113.214 293.565 120.239 289.509L208.054 238.447C212.134 236.092 213.826 232.888 213.167 229.822C212.693 232.036 210.999 234.183 208.054 235.881Z" fill="white"/>
<path d="M132.111 300.809L127.932 303.222V298.396L132.111 295.983V300.809Z" fill="white"/>
<path d="M140.855 295.761L136.676 298.173V293.348L140.855 290.935V295.761Z" fill="white"/>
<path d="M149.595 290.713L145.418 293.125V288.3L149.595 285.887V290.713Z" fill="white"/>
<path d="M142.451 304.618L138.271 307.034V302.206L142.451 299.793V304.618Z" fill="white"/>
<path d="M150.147 300.176L145.968 302.588V297.763L150.147 295.35V300.176Z" fill="white"/>
<path d="M177.642 274.523L173.463 276.936V272.11L177.642 269.695V274.523Z" fill="white"/>
<path d="M201.726 260.615L197.547 263.028V258.202L201.726 255.79V260.615Z" fill="white"/>
<path d="M158.341 285.665L154.162 288.08V283.252L158.341 280.839V285.665Z" fill="white"/>
<path d="M213.322 194.341L213.308 152.015L159.821 159.151L119.772 136.028C112.747 131.972 101.359 131.972 94.3335 136.028L88.0971 139.992L1.25781 151.579V194.401C1.25781 194.425 1.25781 194.449 1.25781 194.471V194.672L1.28927 194.667C1.38849 197.247 3.10912 199.81 6.5189 201.78L94.7981 252.747C101.823 256.803 113.212 256.803 120.237 252.747L208.052 201.683C211.452 199.72 213.168 197.167 213.279 194.595L213.322 194.59V194.341Z" fill="url(#paint10_linear_175_600)"/>
<path d="M208.055 144.355L119.775 93.3876C112.75 89.3317 101.362 89.3317 94.3364 93.3876L6.52188 144.45C-0.503385 148.506 -0.503385 155.081 6.52188 159.137L94.801 210.104C101.826 214.16 113.215 214.16 120.24 210.104L208.055 159.042C215.08 154.986 215.08 148.411 208.055 144.355Z" fill="url(#paint11_radial_175_600)"/>
<path d="M208.055 144.355L119.775 93.3876C112.75 89.3317 101.362 89.3317 94.3364 93.3876L6.52188 144.45C-0.503385 148.506 -0.503385 155.081 6.52188 159.137L94.801 210.104C101.826 214.16 113.215 214.16 120.24 210.104L208.055 159.042C215.08 154.986 215.08 148.411 208.055 144.355Z" fill="url(#paint12_radial_175_600)"/>
<path d="M107.441 193.59C104.203 193.59 100.965 192.862 98.4413 191.405L39.9499 157.634C37.329 156.121 35.8867 154.04 35.8867 151.777C35.8867 149.512 37.329 147.431 39.9499 145.919L98.1291 112.085C103.182 109.168 111.088 109.168 116.134 112.085L174.628 145.856C177.249 147.368 178.691 149.449 178.691 151.712C178.691 153.977 177.249 156.058 174.628 157.571L116.446 191.402C113.92 192.864 110.679 193.59 107.441 193.59ZM107.134 112.196C104.29 112.196 101.445 112.82 99.2786 114.071L41.097 147.903C39.2118 148.99 38.1761 150.366 38.1761 151.777C38.1761 153.188 39.2118 154.563 41.0921 155.649L99.5835 189.42C103.913 191.92 110.96 191.92 115.292 189.42L173.473 155.589C175.359 154.502 176.394 153.125 176.394 151.714C176.394 150.304 175.359 148.929 173.476 147.842L114.982 114.071C112.823 112.82 109.977 112.196 107.134 112.196Z" fill="#5CFFD4"/>
<path d="M208.054 156.478L120.239 207.54C113.214 211.596 101.825 211.596 94.8002 207.54L6.52105 156.572C3.57591 154.871 1.88191 152.727 1.40759 150.51C0.749354 153.578 2.44335 156.78 6.52105 159.135L94.8002 210.105C101.825 214.161 113.214 214.161 120.239 210.105L208.054 159.043C212.134 156.688 213.826 153.484 213.167 150.418C212.693 152.632 210.999 154.776 208.054 156.478Z" fill="white"/>
<path d="M132.111 221.404L127.932 223.816V218.991L132.111 216.578V221.404Z" fill="white"/>
<path d="M140.855 216.356L136.676 218.768V213.943L140.855 211.53V216.356Z" fill="white"/>
<path d="M149.595 211.308L145.418 213.721V208.895L149.595 206.482V211.308Z" fill="white"/>
<path d="M142.451 225.213L138.271 227.626V222.8L142.451 220.388V225.213Z" fill="white"/>
<path d="M150.147 220.768L145.968 223.181V218.355L150.147 215.942V220.768Z" fill="white"/>
<path d="M177.642 195.116L173.463 197.528V192.703L177.642 190.29V195.116Z" fill="white"/>
<path d="M201.726 181.21L197.547 183.623V178.797L201.726 176.385V181.21Z" fill="white"/>
<path d="M158.341 206.26L154.162 208.672V203.847L158.341 201.434V206.26Z" fill="white"/>
<path d="M418.831 443.174C414.075 443.174 409.322 442.129 405.702 440.04L317.423 389.07C313.761 386.955 311.743 384.095 311.743 381.019C311.743 377.938 313.761 375.075 317.423 372.96L405.235 321.901C412.476 317.717 424.256 317.719 431.497 321.898L519.778 372.866C523.442 374.981 525.458 377.841 525.458 380.92C525.458 384 523.442 386.858 519.778 388.973L431.964 440.035C428.344 442.131 423.586 443.174 418.831 443.174ZM418.366 320.383C413.908 320.383 409.451 321.363 406.058 323.324L318.246 374.383C315.112 376.196 313.384 378.553 313.386 381.019C313.386 383.487 315.112 385.842 318.243 387.65L406.522 438.62C413.311 442.538 424.353 442.538 431.141 438.62L518.953 387.558C522.09 385.748 523.815 383.391 523.815 380.925C523.815 378.456 522.09 376.101 518.956 374.294L430.677 323.324C427.281 321.363 422.824 320.383 418.366 320.383Z" fill="#00FFC2"/>
<path d="M525.066 353.066L525.051 310.74L471.564 317.877L431.516 294.754C424.49 290.698 413.102 290.698 406.077 294.754L399.84 298.718L313.001 310.305V353.127C313.001 353.151 313.001 353.175 313.001 353.197V353.398L313.035 353.393C313.134 355.973 314.855 358.535 318.264 360.505L406.544 411.473C413.569 415.529 424.957 415.529 431.983 411.473L519.797 360.408C523.197 358.446 524.913 355.893 525.024 353.32L525.066 353.315V353.066Z" fill="url(#paint13_linear_175_600)"/>
<path d="M519.798 303.078L431.519 252.111C424.493 248.055 413.105 248.055 406.08 252.111L318.265 303.173C311.24 307.229 311.24 313.804 318.265 317.86L406.544 368.827C413.569 372.883 424.958 372.883 431.983 368.827L519.798 317.765C526.823 313.709 526.823 307.134 519.798 303.078Z" fill="url(#paint14_radial_175_600)"/>
<path d="M519.797 315.2L431.982 366.262C424.957 370.318 413.569 370.318 406.543 366.262L318.264 315.294C315.319 313.593 313.625 311.449 313.151 309.232C312.493 312.301 314.186 315.502 318.264 317.857L406.543 368.827C413.569 372.883 424.957 372.883 431.982 368.827L519.797 317.763C523.877 315.408 525.569 312.204 524.91 309.138C524.436 311.354 522.745 313.499 519.797 315.2Z" fill="white"/>
<path d="M443.854 380.126L439.675 382.539V377.714L443.854 375.301V380.126Z" fill="white"/>
<path d="M452.598 375.078L448.419 377.491V372.666L452.598 370.253V375.078Z" fill="white"/>
<path d="M461.34 370.031L457.161 372.443V367.618L461.34 365.205V370.031Z" fill="white"/>
<path d="M454.193 383.936L450.014 386.349V381.523L454.193 379.11V383.936Z" fill="white"/>
<path d="M461.89 379.491L457.711 381.906V377.078L461.89 374.665V379.491Z" fill="white"/>
<path d="M489.387 353.839L485.208 356.251V351.426L489.387 349.013V353.839Z" fill="white"/>
<path d="M513.469 339.933L509.29 342.346V337.52L513.469 335.107V339.933Z" fill="white"/>
<path d="M470.085 364.983L465.905 367.395V362.57L470.085 360.157V364.983Z" fill="white"/>
<path opacity="0.4" d="M414.037 347.296L354.643 313.004C352.227 311.611 352.532 309.176 355.318 307.567L413.357 274.057C416.144 272.448 420.363 272.273 422.775 273.667L482.169 307.959C484.585 309.353 484.28 311.787 481.494 313.397L423.455 346.906C420.667 348.516 416.452 348.69 414.037 347.296Z" fill="#002B20"/>
<path d="M390.67 384.414L341.658 356.117C340.486 355.442 339.54 353.63 339.54 352.069V348.429C339.54 346.868 340.489 346.152 341.658 346.827L390.67 375.124C391.839 375.799 392.787 377.612 392.787 379.173V382.812C392.79 384.371 391.841 385.089 390.67 384.414Z" fill="white"/>
<path d="M525.066 273.658L525.051 231.333L471.564 238.469L431.516 215.346C424.49 211.29 413.102 211.29 406.077 215.346L399.84 219.31L313.001 230.897V273.719C313.001 273.743 313.001 273.767 313.001 273.789V273.99L313.035 273.985C313.134 276.565 314.855 279.128 318.264 281.098L406.544 332.065C413.569 336.121 424.957 336.121 431.983 332.065L519.797 281.001C523.197 279.038 524.913 276.485 525.024 273.913L525.066 273.908V273.658Z" fill="url(#paint15_linear_175_600)"/>
<path d="M519.798 223.673L431.519 172.706C424.493 168.65 413.105 168.65 406.08 172.706L318.265 223.768C311.24 227.823 311.24 234.399 318.265 238.454L406.544 289.422C413.569 293.478 424.958 293.478 431.983 289.422L519.798 238.36C526.823 234.304 526.823 227.729 519.798 223.673Z" fill="url(#paint16_radial_175_600)"/>
<path opacity="0.4" d="M477.746 226.757L426.306 197.058C422.214 194.694 415.576 194.694 411.484 197.058L360.315 226.812C356.223 229.177 356.223 233.008 360.315 235.369L411.755 265.068C415.847 267.432 422.485 267.432 426.577 265.068L477.746 235.314C481.84 232.952 481.84 229.121 477.746 226.757Z" fill="#002B20"/>
<path d="M519.797 235.795L431.982 286.857C424.957 290.912 413.569 290.912 406.543 286.857L318.264 235.889C315.319 234.188 313.625 232.044 313.151 229.827C312.493 232.895 314.186 236.097 318.264 238.452L406.543 289.419C413.569 293.475 424.957 293.475 431.982 289.419L519.797 238.357C523.877 236.003 525.569 232.799 524.91 229.732C524.436 231.949 522.745 234.093 519.797 235.795Z" fill="white"/>
<path d="M443.854 300.721L439.675 303.132V298.306L443.854 295.894V300.721Z" fill="white"/>
<path d="M452.598 295.674L448.419 298.086V293.258L452.598 290.848V295.674Z" fill="white"/>
<path d="M461.34 290.626L457.161 293.039V288.213L461.34 285.8V290.626Z" fill="white"/>
<path d="M454.193 304.531L450.014 306.944V302.118L454.193 299.706V304.531Z" fill="white"/>
<path d="M461.89 300.086L457.711 302.498V297.673L461.89 295.26V300.086Z" fill="white"/>
<path d="M489.387 274.434L485.208 276.847V272.021L489.387 269.608V274.434Z" fill="white"/>
<path d="M513.469 260.528L509.29 262.941V258.115L513.469 255.703V260.528Z" fill="white"/>
<path d="M470.085 285.578L465.905 287.991V283.165L470.085 280.752V285.578Z" fill="white"/>
<path d="M525.066 194.254L525.051 151.928L471.564 159.064L431.516 135.941C424.49 131.885 413.102 131.885 406.077 135.941L399.84 139.905L313.001 151.492V194.314C313.001 194.338 313.001 194.363 313.001 194.384V194.585L313.035 194.58C313.134 197.16 314.855 199.723 318.264 201.693L406.544 252.66C413.569 256.716 424.957 256.716 431.983 252.66L519.797 201.596C523.197 199.633 524.913 197.08 525.024 194.508L525.066 194.503V194.254Z" fill="url(#paint17_linear_175_600)"/>
<path d="M519.798 144.266L431.519 93.2983C424.493 89.2424 413.105 89.2424 406.08 93.2983L318.265 144.36C311.24 148.416 311.24 154.991 318.265 159.047L406.544 210.015C413.569 214.071 424.958 214.071 431.983 210.015L519.798 158.953C526.823 154.897 526.823 148.322 519.798 144.266Z" fill="url(#paint18_radial_175_600)"/>
<path d="M519.797 156.387L431.982 207.449C424.957 211.505 413.569 211.505 406.543 207.449L318.264 156.482C315.319 154.78 313.625 152.636 313.151 150.42C312.493 153.488 314.186 156.69 318.264 159.044L406.543 210.012C413.569 214.068 424.957 214.068 431.982 210.012L519.797 158.95C523.877 156.595 525.569 153.391 524.91 150.325C524.436 152.542 522.745 154.688 519.797 156.387Z" fill="white"/>
<path d="M443.854 221.314L439.675 223.726V218.901L443.854 216.488V221.314Z" fill="white"/>
<path d="M452.598 216.266L448.419 218.679V213.853L452.598 211.44V216.266Z" fill="white"/>
<path d="M461.34 211.218L457.161 213.631V208.805L461.34 206.393V211.218Z" fill="white"/>
<path d="M454.193 225.123L450.014 227.536V222.711L454.193 220.298V225.123Z" fill="white"/>
<path d="M461.89 220.678L457.711 223.093V218.265L461.89 215.853V220.678Z" fill="white"/>
<path d="M489.387 195.026L485.208 197.439V192.613L489.387 190.201V195.026Z" fill="white"/>
<path d="M513.469 181.12L509.29 183.533V178.708L513.469 176.295V181.12Z" fill="white"/>
<path d="M470.085 206.17L465.905 208.583V203.757L470.085 201.345V206.17Z" fill="white"/>
<path d="M262.677 533.521C257.921 533.521 253.169 532.475 249.548 530.387L161.267 479.417C157.603 477.302 155.587 474.441 155.587 471.363C155.587 468.282 157.603 465.422 161.267 463.307L249.079 412.245C256.322 408.065 268.102 408.065 275.341 412.242L363.62 463.212C367.284 465.327 369.3 468.188 369.3 471.266C369.3 474.347 367.284 477.207 363.62 479.322L275.808 530.384C272.19 532.478 267.432 533.521 262.677 533.521ZM262.212 410.727C257.755 410.727 253.297 411.707 249.904 413.668L162.092 464.73C158.958 466.54 157.233 468.897 157.233 471.365C157.233 473.834 158.958 476.188 162.089 477.996L250.371 528.966C257.159 532.884 268.202 532.884 274.99 528.966L362.802 477.904C365.936 476.094 367.661 473.737 367.661 471.268C367.661 468.8 365.936 466.445 362.804 464.638L274.525 413.668C271.127 411.707 266.67 410.727 262.212 410.727Z" fill="#0AEFB2"/>
<path opacity="0.2" d="M341.371 465.528L272.227 425.608C266.724 422.43 257.804 422.43 252.303 425.608L183.522 465.603C178.019 468.781 178.019 473.93 183.522 477.108L252.666 517.028C258.169 520.206 267.089 520.206 272.59 517.028L341.371 477.033C346.874 473.855 346.872 468.703 341.371 465.528Z" fill="#0AEFB2"/>
<path d="M368.911 443.409L368.897 401.084L315.41 408.22L275.361 385.097C268.336 381.041 256.948 381.041 249.922 385.097L243.686 389.061L156.847 400.648V443.47C156.847 443.494 156.847 443.518 156.847 443.54V443.741L156.881 443.736C156.98 446.316 158.7 448.879 162.11 450.849L250.389 501.816C257.415 505.872 268.803 505.872 275.828 501.816L363.643 450.752C367.043 448.789 368.759 446.236 368.87 443.664L368.911 443.659V443.409Z" fill="url(#paint19_linear_175_600)"/>
<path d="M363.644 393.424L275.364 342.456C268.339 338.401 256.951 338.401 249.925 342.456L162.111 393.519C155.085 397.574 155.085 404.15 162.111 408.205L250.39 459.173C257.415 463.229 268.804 463.229 275.829 459.173L363.644 408.111C370.669 404.055 370.669 397.48 363.644 393.424Z" fill="url(#paint20_radial_175_600)"/>
<path d="M363.643 405.546L275.828 456.607C268.803 460.663 257.414 460.663 250.389 456.607L162.11 405.64C159.165 403.939 157.471 401.795 156.996 399.578C156.338 402.646 158.032 405.848 162.11 408.203L250.389 459.173C257.414 463.229 268.803 463.229 275.828 459.173L363.643 408.108C367.72 405.754 369.414 402.55 368.756 399.483C368.282 401.7 366.588 403.844 363.643 405.546Z" fill="white"/>
<path d="M287.7 470.472L283.521 472.885V468.06L287.7 465.647V470.472Z" fill="white"/>
<path d="M296.444 465.424L292.265 467.837V463.011L296.444 460.599V465.424Z" fill="white"/>
<path d="M305.186 460.376L301.007 462.789V457.964L305.186 455.551V460.376Z" fill="white"/>
<path d="M298.04 474.282L293.86 476.695V471.869L298.04 469.457V474.282Z" fill="white"/>
<path d="M305.737 469.837L301.558 472.249V467.424L305.737 465.011V469.837Z" fill="white"/>
<path d="M333.231 444.184L329.052 446.597V441.772L333.231 439.359V444.184Z" fill="white"/>
<path d="M357.315 430.279L353.136 432.691V427.866L357.315 425.453V430.279Z" fill="white"/>
<path d="M313.93 455.328L309.751 457.741V452.916L313.93 450.503V455.328Z" fill="white"/>
<path opacity="0.4" d="M257.881 437.642L198.487 403.351C196.072 401.957 196.375 399.522 199.162 397.913L257.201 364.403C259.989 362.794 264.207 362.62 266.62 364.014L326.014 398.305C328.429 399.699 328.124 402.133 325.339 403.743L267.3 437.252C264.512 438.859 260.296 439.036 257.881 437.642Z" fill="#06033E"/>
<path d="M234.516 474.758L185.503 446.461C184.332 445.786 183.386 443.973 183.386 442.412V438.773C183.386 437.212 184.334 436.495 185.503 437.171L234.516 465.468C235.684 466.143 236.633 467.955 236.633 469.516V473.156C236.633 474.717 235.687 475.433 234.516 474.758Z" fill="white"/>
<path d="M368.911 364.004L368.897 321.678L315.41 328.815L275.361 305.692C268.336 301.636 256.948 301.636 249.922 305.692L243.686 309.656L156.847 321.243V364.065C156.847 364.089 156.847 364.113 156.847 364.135V364.336L156.881 364.331C156.98 366.911 158.7 369.473 162.11 371.443L250.389 422.411C257.415 426.467 268.803 426.467 275.828 422.411L363.643 371.346C367.043 369.384 368.759 366.831 368.87 364.258L368.911 364.253V364.004Z" fill="url(#paint21_linear_175_600)"/>
<path d="M363.644 314.016L275.364 263.049C268.339 258.993 256.951 258.993 249.925 263.049L162.111 314.111C155.085 318.167 155.085 324.742 162.111 328.798L250.39 379.765C257.415 383.821 268.804 383.821 275.829 379.765L363.644 328.703C370.669 324.647 370.669 318.072 363.644 314.016Z" fill="url(#paint22_linear_175_600)"/>
<path opacity="0.4" d="M321.591 317.102L270.152 287.404C266.06 285.04 259.422 285.04 255.329 287.404L204.161 317.158C200.069 319.522 200.069 323.353 204.161 325.715L255.6 355.413C259.693 357.778 266.331 357.778 270.423 355.413L321.591 325.659C325.686 323.298 325.686 319.464 321.591 317.102Z" fill="#06033E"/>
<path d="M363.643 326.138L275.828 377.2C268.803 381.256 257.414 381.256 250.389 377.2L162.11 326.232C159.165 324.531 157.471 322.387 156.996 320.17C156.338 323.239 158.032 326.44 162.11 328.795L250.389 379.765C257.414 383.821 268.803 383.821 275.828 379.765L363.643 328.703C367.72 326.348 369.414 323.144 368.756 320.078C368.282 322.292 366.588 324.439 363.643 326.138Z" fill="white"/>
<path d="M287.7 391.065L283.521 393.477V388.652L287.7 386.239V391.065Z" fill="white"/>
<path d="M296.444 386.017L292.265 388.43V383.604L296.444 381.191V386.017Z" fill="white"/>
<path d="M305.186 380.969L301.007 383.382V378.556L305.186 376.144V380.969Z" fill="white"/>
<path d="M298.04 394.874L293.86 397.287V392.462L298.04 390.049V394.874Z" fill="white"/>
<path d="M305.737 390.431L301.558 392.844V388.019L305.737 385.606V390.431Z" fill="white"/>
<path d="M333.231 364.779L329.052 367.192V362.364L333.231 359.951V364.779Z" fill="white"/>
<path d="M357.315 350.871L353.136 353.284V348.459L357.315 346.046V350.871Z" fill="white"/>
<path d="M313.93 375.921L309.751 378.333V373.508L313.93 371.095V375.921Z" fill="white"/>
<path d="M368.911 284.597L368.897 242.271L315.41 249.408L275.361 226.285C268.336 222.229 256.948 222.229 249.922 226.285L243.686 230.249L156.847 241.836V284.657C156.847 284.682 156.847 284.706 156.847 284.728V284.928L156.881 284.924C156.98 287.503 158.7 290.066 162.11 292.036L250.389 343.004C257.415 347.06 268.803 347.06 275.828 343.004L363.643 291.939C367.043 289.977 368.759 287.423 368.87 284.851L368.911 284.846V284.597Z" fill="url(#paint23_linear_175_600)"/>
<path d="M363.644 234.612L275.364 183.644C268.339 179.588 256.951 179.588 249.925 183.644L162.111 234.706C155.085 238.762 155.085 245.337 162.111 249.393L250.39 300.361C257.415 304.417 268.804 304.417 275.829 300.361L363.644 249.299C370.669 245.243 370.669 238.668 363.644 234.612Z" fill="url(#paint24_radial_175_600)"/>
<path d="M363.643 246.733L275.828 297.795C268.803 301.851 257.414 301.851 250.389 297.795L162.11 246.827C159.165 245.126 157.471 242.982 156.996 240.765C156.338 243.834 158.032 247.035 162.11 249.39L250.389 300.358C257.414 304.414 268.803 304.414 275.828 300.358L363.643 249.296C367.72 246.941 369.414 243.737 368.756 240.671C368.282 242.888 366.588 245.032 363.643 246.733Z" fill="white"/>
<path d="M287.7 311.66L283.521 314.073V309.247L287.7 306.834V311.66Z" fill="white"/>
<path d="M296.444 306.612L292.265 309.024V304.199L296.444 301.786V306.612Z" fill="white"/>
<path d="M305.186 301.564L301.007 303.976V299.151L305.186 296.738V301.564Z" fill="white"/>
<path d="M298.04 315.47L293.86 317.882V313.057L298.04 310.644V315.47Z" fill="white"/>
<path d="M305.737 311.024L301.558 313.437V308.611L305.737 306.199V311.024Z" fill="white"/>
<path d="M333.231 285.372L329.052 287.785V282.959L333.231 280.546V285.372Z" fill="white"/>
<path d="M357.315 271.466L353.136 273.879V269.053L357.315 266.641V271.466Z" fill="white"/>
<path d="M313.93 296.516L309.751 298.929V294.103L313.93 291.69V296.516Z" fill="white"/>
<g style="mix-blend-mode:plus-lighter" filter="url(#filter0_f_175_600)">
<path d="M552 513C552 515.761 549.761 518 547 518C544.239 518 542 515.761 542 513C542 510.239 544.239 508 547 508C549.761 508 552 510.239 552 513Z" fill="#00FFBB"/>
</g>
<g style="mix-blend-mode:plus-lighter" filter="url(#filter1_f_175_600)">
<path d="M552 513C552 515.761 549.761 518 547 518C544.239 518 542 515.761 542 513C542 510.239 544.239 508 547 508C549.761 508 552 510.239 552 513Z" fill="#00FFBB"/>
</g>
<g filter="url(#filter2_f_175_600)">
<path d="M552 513C552 515.761 549.761 518 547 518C544.239 518 542 515.761 542 513C542 510.239 544.239 508 547 508C549.761 508 552 510.239 552 513Z" fill="#00FFBB"/>
</g>
<path d="M552 513C552 515.761 549.761 518 547 518C544.239 518 542 515.761 542 513C542 510.239 544.239 508 547 508C549.761 508 552 510.239 552 513Z" fill="white"/>
<g style="mix-blend-mode:plus-lighter" filter="url(#filter3_f_175_600)">
<path d="M119 583C119 585.761 116.761 588 114 588C111.239 588 109 585.761 109 583C109 580.239 111.239 578 114 578C116.761 578 119 580.239 119 583Z" fill="#00FFBB"/>
</g>
<g style="mix-blend-mode:plus-lighter" filter="url(#filter4_f_175_600)">
<path d="M119 583C119 585.761 116.761 588 114 588C111.239 588 109 585.761 109 583C109 580.239 111.239 578 114 578C116.761 578 119 580.239 119 583Z" fill="#00FFBB"/>
</g>
<g filter="url(#filter5_f_175_600)">
<path d="M119 583C119 585.761 116.761 588 114 588C111.239 588 109 585.761 109 583C109 580.239 111.239 578 114 578C116.761 578 119 580.239 119 583Z" fill="#00FFBB"/>
</g>
<path d="M119 583C119 585.761 116.761 588 114 588C111.239 588 109 585.761 109 583C109 580.239 111.239 578 114 578C116.761 578 119 580.239 119 583Z" fill="white"/>
<g style="mix-blend-mode:plus-lighter" filter="url(#filter6_f_175_600)">
<path d="M106 572C106 574.761 103.761 577 101 577C98.2386 577 96 574.761 96 572C96 569.239 98.2386 567 101 567C103.761 567 106 569.239 106 572Z" fill="#00FFBB"/>
</g>
<g style="mix-blend-mode:plus-lighter" filter="url(#filter7_f_175_600)">
<path d="M106 572C106 574.761 103.761 577 101 577C98.2386 577 96 574.761 96 572C96 569.239 98.2386 567 101 567C103.761 567 106 569.239 106 572Z" fill="#00FFBB"/>
</g>
<g filter="url(#filter8_f_175_600)">
<path d="M106 572C106 574.761 103.761 577 101 577C98.2386 577 96 574.761 96 572C96 569.239 98.2386 567 101 567C103.761 567 106 569.239 106 572Z" fill="#00FFBB"/>
</g>
<path d="M106 572C106 574.761 103.761 577 101 577C98.2386 577 96 574.761 96 572C96 569.239 98.2386 567 101 567C103.761 567 106 569.239 106 572Z" fill="white"/>
<g style="mix-blend-mode:plus-lighter" filter="url(#filter9_f_175_600)">
<path d="M90 562C90 564.761 87.7614 567 85 567C82.2386 567 80 564.761 80 562C80 559.239 82.2386 557 85 557C87.7614 557 90 559.239 90 562Z" fill="#00FFBB"/>
</g>
<g style="mix-blend-mode:plus-lighter" filter="url(#filter10_f_175_600)">
<path d="M90 562C90 564.761 87.7614 567 85 567C82.2386 567 80 564.761 80 562C80 559.239 82.2386 557 85 557C87.7614 557 90 559.239 90 562Z" fill="#00FFBB"/>
</g>
<g filter="url(#filter11_f_175_600)">
<path d="M90 562C90 564.761 87.7614 567 85 567C82.2386 567 80 564.761 80 562C80 559.239 82.2386 557 85 557C87.7614 557 90 559.239 90 562Z" fill="#00FFBB"/>
</g>
<path d="M90 562C90 564.761 87.7614 567 85 567C82.2386 567 80 564.761 80 562C80 559.239 82.2386 557 85 557C87.7614 557 90 559.239 90 562Z" fill="white"/>
<g style="mix-blend-mode:plus-lighter" filter="url(#filter12_f_175_600)">
<path d="M74 552C74 554.761 71.7614 557 69 557C66.2386 557 64 554.761 64 552C64 549.239 66.2386 547 69 547C71.7614 547 74 549.239 74 552Z" fill="#00FFBB"/>
</g>
<g style="mix-blend-mode:plus-lighter" filter="url(#filter13_f_175_600)">
<path d="M74 552C74 554.761 71.7614 557 69 557C66.2386 557 64 554.761 64 552C64 549.239 66.2386 547 69 547C71.7614 547 74 549.239 74 552Z" fill="#00FFBB"/>
</g>
<g filter="url(#filter14_f_175_600)">
<path d="M74 552C74 554.761 71.7614 557 69 557C66.2386 557 64 554.761 64 552C64 549.239 66.2386 547 69 547C71.7614 547 74 549.239 74 552Z" fill="#00FFBB"/>
</g>
<path d="M74 552C74 554.761 71.7614 557 69 557C66.2386 557 64 554.761 64 552C64 549.239 66.2386 547 69 547C71.7614 547 74 549.239 74 552Z" fill="white"/>
<g style="mix-blend-mode:plus-lighter" filter="url(#filter15_f_175_600)">
<path d="M577 498C577 500.761 574.761 503 572 503C569.239 503 567 500.761 567 498C567 495.239 569.239 493 572 493C574.761 493 577 495.239 577 498Z" fill="#00FFBB"/>
</g>
<g style="mix-blend-mode:plus-lighter" filter="url(#filter16_f_175_600)">
<path d="M577 498C577 500.761 574.761 503 572 503C569.239 503 567 500.761 567 498C567 495.239 569.239 493 572 493C574.761 493 577 495.239 577 498Z" fill="#00FFBB"/>
</g>
<g filter="url(#filter17_f_175_600)">
<path d="M577 498C577 500.761 574.761 503 572 503C569.239 503 567 500.761 567 498C567 495.239 569.239 493 572 493C574.761 493 577 495.239 577 498Z" fill="#00FFBB"/>
</g>
<path d="M577 498C577 500.761 574.761 503 572 503C569.239 503 567 500.761 567 498C567 495.239 569.239 493 572 493C574.761 493 577 495.239 577 498Z" fill="white"/>
<g style="mix-blend-mode:plus-lighter" filter="url(#filter18_f_175_600)">
<path d="M602 483C602 485.761 599.761 488 597 488C594.239 488 592 485.761 592 483C592 480.239 594.239 478 597 478C599.761 478 602 480.239 602 483Z" fill="#00FFBB"/>
</g>
<g style="mix-blend-mode:plus-lighter" filter="url(#filter19_f_175_600)">
<path d="M602 483C602 485.761 599.761 488 597 488C594.239 488 592 485.761 592 483C592 480.239 594.239 478 597 478C599.761 478 602 480.239 602 483Z" fill="#00FFBB"/>
</g>
<g filter="url(#filter20_f_175_600)">
<path d="M602 483C602 485.761 599.761 488 597 488C594.239 488 592 485.761 592 483C592 480.239 594.239 478 597 478C599.761 478 602 480.239 602 483Z" fill="#00FFBB"/>
</g>
<path d="M602 483C602 485.761 599.761 488 597 488C594.239 488 592 485.761 592 483C592 480.239 594.239 478 597 478C599.761 478 602 480.239 602 483Z" fill="white"/>
<g style="mix-blend-mode:plus-lighter" filter="url(#filter21_f_175_600)">
<path d="M628 469C628 471.761 625.761 474 623 474C620.239 474 618 471.761 618 469C618 466.239 620.239 464 623 464C625.761 464 628 466.239 628 469Z" fill="#00FFBB"/>
</g>
<g style="mix-blend-mode:plus-lighter" filter="url(#filter22_f_175_600)">
<path d="M628 469C628 471.761 625.761 474 623 474C620.239 474 618 471.761 618 469C618 466.239 620.239 464 623 464C625.761 464 628 466.239 628 469Z" fill="#00FFBB"/>
</g>
<g filter="url(#filter23_f_175_600)">
<path d="M628 469C628 471.761 625.761 474 623 474C620.239 474 618 471.761 618 469C618 466.239 620.239 464 623 464C625.761 464 628 466.239 628 469Z" fill="#00FFBB"/>
</g>
<path d="M628 469C628 471.761 625.761 474 623 474C620.239 474 618 471.761 618 469C618 466.239 620.239 464 623 464C625.761 464 628 466.239 628 469Z" fill="white"/>
<g style="mix-blend-mode:plus-lighter" filter="url(#filter24_f_175_600)">
<path d="M654 454C654 456.761 651.761 459 649 459C646.239 459 644 456.761 644 454C644 451.239 646.239 449 649 449C651.761 449 654 451.239 654 454Z" fill="#00FFBB"/>
</g>
<g style="mix-blend-mode:plus-lighter" filter="url(#filter25_f_175_600)">
<path d="M654 454C654 456.761 651.761 459 649 459C646.239 459 644 456.761 644 454C644 451.239 646.239 449 649 449C651.761 449 654 451.239 654 454Z" fill="#00FFBB"/>
</g>
<g filter="url(#filter26_f_175_600)">
<path d="M654 454C654 456.761 651.761 459 649 459C646.239 459 644 456.761 644 454C644 451.239 646.239 449 649 449C651.761 449 654 451.239 654 454Z" fill="#00FFBB"/>
</g>
<path d="M654 454C654 456.761 651.761 459 649 459C646.239 459 644 456.761 644 454C644 451.239 646.239 449 649 449C651.761 449 654 451.239 654 454Z" fill="white"/>
<defs>
<filter id="filter0_f_175_600" x="520.6" y="486.6" width="52.8" height="52.8" filterUnits="userSpaceOnUse" color-interpolation-filters="sRGB">
<feFlood flood-opacity="0" result="BackgroundImageFix"/>
<feBlend mode="normal" in="SourceGraphic" in2="BackgroundImageFix" result="shape"/>
<feGaussianBlur stdDeviation="10.7" result="effect1_foregroundBlur_175_600"/>
</filter>
<filter id="filter1_f_175_600" x="534.9" y="500.9" width="24.2" height="24.2" filterUnits="userSpaceOnUse" color-interpolation-filters="sRGB">
<feFlood flood-opacity="0" result="BackgroundImageFix"/>
<feBlend mode="normal" in="SourceGraphic" in2="BackgroundImageFix" result="shape"/>
<feGaussianBlur stdDeviation="3.55" result="effect1_foregroundBlur_175_600"/>
</filter>
<filter id="filter2_f_175_600" x="540" y="506" width="14" height="14" filterUnits="userSpaceOnUse" color-interpolation-filters="sRGB">
<feFlood flood-opacity="0" result="BackgroundImageFix"/>
<feBlend mode="normal" in="SourceGraphic" in2="BackgroundImageFix" result="shape"/>
<feGaussianBlur stdDeviation="1" result="effect1_foregroundBlur_175_600"/>
</filter>
<filter id="filter3_f_175_600" x="87.6" y="556.6" width="52.8" height="52.8" filterUnits="userSpaceOnUse" color-interpolation-filters="sRGB">
<feFlood flood-opacity="0" result="BackgroundImageFix"/>
<feBlend mode="normal" in="SourceGraphic" in2="BackgroundImageFix" result="shape"/>
<feGaussianBlur stdDeviation="10.7" result="effect1_foregroundBlur_175_600"/>
</filter>
<filter id="filter4_f_175_600" x="101.9" y="570.9" width="24.2" height="24.2" filterUnits="userSpaceOnUse" color-interpolation-filters="sRGB">
<feFlood flood-opacity="0" result="BackgroundImageFix"/>
<feBlend mode="normal" in="SourceGraphic" in2="BackgroundImageFix" result="shape"/>
<feGaussianBlur stdDeviation="3.55" result="effect1_foregroundBlur_175_600"/>
</filter>
<filter id="filter5_f_175_600" x="107" y="576" width="14" height="14" filterUnits="userSpaceOnUse" color-interpolation-filters="sRGB">
<feFlood flood-opacity="0" result="BackgroundImageFix"/>
<feBlend mode="normal" in="SourceGraphic" in2="BackgroundImageFix" result="shape"/>
<feGaussianBlur stdDeviation="1" result="effect1_foregroundBlur_175_600"/>
</filter>
<filter id="filter6_f_175_600" x="74.6" y="545.6" width="52.8" height="52.8" filterUnits="userSpaceOnUse" color-interpolation-filters="sRGB">
<feFlood flood-opacity="0" result="BackgroundImageFix"/>
<feBlend mode="normal" in="SourceGraphic" in2="BackgroundImageFix" result="shape"/>
<feGaussianBlur stdDeviation="10.7" result="effect1_foregroundBlur_175_600"/>
</filter>
<filter id="filter7_f_175_600" x="88.9" y="559.9" width="24.2" height="24.2" filterUnits="userSpaceOnUse" color-interpolation-filters="sRGB">
<feFlood flood-opacity="0" result="BackgroundImageFix"/>
<feBlend mode="normal" in="SourceGraphic" in2="BackgroundImageFix" result="shape"/>
<feGaussianBlur stdDeviation="3.55" result="effect1_foregroundBlur_175_600"/>
</filter>
<filter id="filter8_f_175_600" x="94" y="565" width="14" height="14" filterUnits="userSpaceOnUse" color-interpolation-filters="sRGB">
<feFlood flood-opacity="0" result="BackgroundImageFix"/>
<feBlend mode="normal" in="SourceGraphic" in2="BackgroundImageFix" result="shape"/>
<feGaussianBlur stdDeviation="1" result="effect1_foregroundBlur_175_600"/>
</filter>
<filter id="filter9_f_175_600" x="58.6" y="535.6" width="52.8" height="52.8" filterUnits="userSpaceOnUse" color-interpolation-filters="sRGB">
<feFlood flood-opacity="0" result="BackgroundImageFix"/>
<feBlend mode="normal" in="SourceGraphic" in2="BackgroundImageFix" result="shape"/>
<feGaussianBlur stdDeviation="10.7" result="effect1_foregroundBlur_175_600"/>
</filter>
<filter id="filter10_f_175_600" x="72.9" y="549.9" width="24.2" height="24.2" filterUnits="userSpaceOnUse" color-interpolation-filters="sRGB">
<feFlood flood-opacity="0" result="BackgroundImageFix"/>
<feBlend mode="normal" in="SourceGraphic" in2="BackgroundImageFix" result="shape"/>
<feGaussianBlur stdDeviation="3.55" result="effect1_foregroundBlur_175_600"/>
</filter>
<filter id="filter11_f_175_600" x="78" y="555" width="14" height="14" filterUnits="userSpaceOnUse" color-interpolation-filters="sRGB">
<feFlood flood-opacity="0" result="BackgroundImageFix"/>
<feBlend mode="normal" in="SourceGraphic" in2="BackgroundImageFix" result="shape"/>
<feGaussianBlur stdDeviation="1" result="effect1_foregroundBlur_175_600"/>
</filter>
<filter id="filter12_f_175_600" x="42.6" y="525.6" width="52.8" height="52.8" filterUnits="userSpaceOnUse" color-interpolation-filters="sRGB">
<feFlood flood-opacity="0" result="BackgroundImageFix"/>
<feBlend mode="normal" in="SourceGraphic" in2="BackgroundImageFix" result="shape"/>
<feGaussianBlur stdDeviation="10.7" result="effect1_foregroundBlur_175_600"/>
</filter>
<filter id="filter13_f_175_600" x="56.9" y="539.9" width="24.2" height="24.2" filterUnits="userSpaceOnUse" color-interpolation-filters="sRGB">
<feFlood flood-opacity="0" result="BackgroundImageFix"/>
<feBlend mode="normal" in="SourceGraphic" in2="BackgroundImageFix" result="shape"/>
<feGaussianBlur stdDeviation="3.55" result="effect1_foregroundBlur_175_600"/>
</filter>
<filter id="filter14_f_175_600" x="62" y="545" width="14" height="14" filterUnits="userSpaceOnUse" color-interpolation-filters="sRGB">
<feFlood flood-opacity="0" result="BackgroundImageFix"/>
<feBlend mode="normal" in="SourceGraphic" in2="BackgroundImageFix" result="shape"/>
<feGaussianBlur stdDeviation="1" result="effect1_foregroundBlur_175_600"/>
</filter>
<filter id="filter15_f_175_600" x="545.6" y="471.6" width="52.8" height="52.8" filterUnits="userSpaceOnUse" color-interpolation-filters="sRGB">
<feFlood flood-opacity="0" result="BackgroundImageFix"/>
<feBlend mode="normal" in="SourceGraphic" in2="BackgroundImageFix" result="shape"/>
<feGaussianBlur stdDeviation="10.7" result="effect1_foregroundBlur_175_600"/>
</filter>
<filter id="filter16_f_175_600" x="559.9" y="485.9" width="24.2" height="24.2" filterUnits="userSpaceOnUse" color-interpolation-filters="sRGB">
<feFlood flood-opacity="0" result="BackgroundImageFix"/>
<feBlend mode="normal" in="SourceGraphic" in2="BackgroundImageFix" result="shape"/>
<feGaussianBlur stdDeviation="3.55" result="effect1_foregroundBlur_175_600"/>
</filter>
<filter id="filter17_f_175_600" x="565" y="491" width="14" height="14" filterUnits="userSpaceOnUse" color-interpolation-filters="sRGB">
<feFlood flood-opacity="0" result="BackgroundImageFix"/>
<feBlend mode="normal" in="SourceGraphic" in2="BackgroundImageFix" result="shape"/>
<feGaussianBlur stdDeviation="1" result="effect1_foregroundBlur_175_600"/>
</filter>
<filter id="filter18_f_175_600" x="570.6" y="456.6" width="52.8" height="52.8" filterUnits="userSpaceOnUse" color-interpolation-filters="sRGB">
<feFlood flood-opacity="0" result="BackgroundImageFix"/>
<feBlend mode="normal" in="SourceGraphic" in2="BackgroundImageFix" result="shape"/>
<feGaussianBlur stdDeviation="10.7" result="effect1_foregroundBlur_175_600"/>
</filter>
<filter id="filter19_f_175_600" x="584.9" y="470.9" width="24.2" height="24.2" filterUnits="userSpaceOnUse" color-interpolation-filters="sRGB">
<feFlood flood-opacity="0" result="BackgroundImageFix"/>
<feBlend mode="normal" in="SourceGraphic" in2="BackgroundImageFix" result="shape"/>
<feGaussianBlur stdDeviation="3.55" result="effect1_foregroundBlur_175_600"/>
</filter>
<filter id="filter20_f_175_600" x="590" y="476" width="14" height="14" filterUnits="userSpaceOnUse" color-interpolation-filters="sRGB">
<feFlood flood-opacity="0" result="BackgroundImageFix"/>
<feBlend mode="normal" in="SourceGraphic" in2="BackgroundImageFix" result="shape"/>
<feGaussianBlur stdDeviation="1" result="effect1_foregroundBlur_175_600"/>
</filter>
<filter id="filter21_f_175_600" x="596.6" y="442.6" width="52.8" height="52.8" filterUnits="userSpaceOnUse" color-interpolation-filters="sRGB">
<feFlood flood-opacity="0" result="BackgroundImageFix"/>
<feBlend mode="normal" in="SourceGraphic" in2="BackgroundImageFix" result="shape"/>
<feGaussianBlur stdDeviation="10.7" result="effect1_foregroundBlur_175_600"/>
</filter>
<filter id="filter22_f_175_600" x="610.9" y="456.9" width="24.2" height="24.2" filterUnits="userSpaceOnUse" color-interpolation-filters="sRGB">
<feFlood flood-opacity="0" result="BackgroundImageFix"/>
<feBlend mode="normal" in="SourceGraphic" in2="BackgroundImageFix" result="shape"/>
<feGaussianBlur stdDeviation="3.55" result="effect1_foregroundBlur_175_600"/>
</filter>
<filter id="filter23_f_175_600" x="616" y="462" width="14" height="14" filterUnits="userSpaceOnUse" color-interpolation-filters="sRGB">
<feFlood flood-opacity="0" result="BackgroundImageFix"/>
<feBlend mode="normal" in="SourceGraphic" in2="BackgroundImageFix" result="shape"/>
<feGaussianBlur stdDeviation="1" result="effect1_foregroundBlur_175_600"/>
</filter>
<filter id="filter24_f_175_600" x="622.6" y="427.6" width="52.8" height="52.8" filterUnits="userSpaceOnUse" color-interpolation-filters="sRGB">
<feFlood flood-opacity="0" result="BackgroundImageFix"/>
<feBlend mode="normal" in="SourceGraphic" in2="BackgroundImageFix" result="shape"/>
<feGaussianBlur stdDeviation="10.7" result="effect1_foregroundBlur_175_600"/>
</filter>
<filter id="filter25_f_175_600" x="636.9" y="441.9" width="24.2" height="24.2" filterUnits="userSpaceOnUse" color-interpolation-filters="sRGB">
<feFlood flood-opacity="0" result="BackgroundImageFix"/>
<feBlend mode="normal" in="SourceGraphic" in2="BackgroundImageFix" result="shape"/>
<feGaussianBlur stdDeviation="3.55" result="effect1_foregroundBlur_175_600"/>
</filter>
<filter id="filter26_f_175_600" x="642" y="447" width="14" height="14" filterUnits="userSpaceOnUse" color-interpolation-filters="sRGB">
<feFlood flood-opacity="0" result="BackgroundImageFix"/>
<feBlend mode="normal" in="SourceGraphic" in2="BackgroundImageFix" result="shape"/>
<feGaussianBlur stdDeviation="1" result="effect1_foregroundBlur_175_600"/>
</filter>
<linearGradient id="paint0_linear_175_600" x1="144.657" y1="262.856" x2="294.201" y2="262.856" gradientUnits="userSpaceOnUse">
<stop stop-color="#01C8EF"/>
<stop offset="0.1297" stop-color="#04B1DD"/>
<stop offset="0.5466" stop-color="#0E6BA7"/>
<stop offset="0.8476" stop-color="#154085"/>
<stop offset="1" stop-color="#172F78"/>
</linearGradient>
<radialGradient id="paint1_radial_175_600" cx="0" cy="0" r="1" gradientUnits="userSpaceOnUse" gradientTransform="translate(118.141 150.718) scale(333.962 333.962)">
<stop stop-color="#01C8EF"/>
<stop offset="0.1396" stop-color="#03BAE4"/>
<stop offset="0.4033" stop-color="#0895C8"/>
<stop offset="0.76" stop-color="#115A9A"/>
<stop offset="1" stop-color="#172F78"/>
</radialGradient>
<linearGradient id="paint2_linear_175_600" x1="144.657" y1="183.45" x2="294.201" y2="183.45" gradientUnits="userSpaceOnUse">
<stop stop-color="#01C8EF"/>
<stop offset="0.1297" stop-color="#04B1DD"/>
<stop offset="0.5466" stop-color="#259D7D"/>
<stop offset="0.8476" stop-color="#0AEFB2"/>
<stop offset="1" stop-color="#028562"/>
</linearGradient>
<radialGradient id="paint3_radial_175_600" cx="0" cy="0" r="1" gradientUnits="userSpaceOnUse" gradientTransform="translate(118.141 71.3126) scale(333.962 333.962)">
<stop stop-color="#0AEFB2"/>
<stop offset="0.1396" stop-color="#0AEFB2"/>
<stop offset="0.4033" stop-color="#0AEFB2"/>
<stop offset="0.76" stop-color="#00563F"/>
<stop offset="1" stop-color="#0AEFB2"/>
</radialGradient>
<linearGradient id="paint4_linear_175_600" x1="144.657" y1="104.044" x2="294.201" y2="104.044" gradientUnits="userSpaceOnUse">
<stop stop-color="#0AEFB2"/>
<stop offset="0.1297" stop-color="#0AEFB2"/>
<stop offset="0.5466" stop-color="#00BF8C"/>
<stop offset="0.8476" stop-color="#00B9AE"/>
<stop offset="1" stop-color="#00827A"/>
</linearGradient>
<radialGradient id="paint5_radial_175_600" cx="0" cy="0" r="1" gradientUnits="userSpaceOnUse" gradientTransform="translate(118.141 -8.09392) scale(333.962 333.962)">
<stop stop-color="#0AEFB2"/>
<stop offset="0.1396" stop-color="#0AEFB2"/>
<stop offset="0.4033" stop-color="#43D9B1"/>
<stop offset="0.76" stop-color="#007858"/>
<stop offset="1" stop-color="#0AEFB2"/>
</radialGradient>
<linearGradient id="paint6_linear_175_600" x1="-11.4961" y1="353.201" x2="138.048" y2="353.201" gradientUnits="userSpaceOnUse">
<stop stop-color="#0AEFB2"/>
<stop offset="1" stop-color="#01C0AF"/>
</linearGradient>
<radialGradient id="paint7_radial_175_600" cx="0" cy="0" r="1" gradientUnits="userSpaceOnUse" gradientTransform="translate(-38.0129 241.063) scale(333.962 333.962)">
<stop stop-color="#09E8B2"/>
<stop offset="1" stop-color="#01C0AF"/>
</radialGradient>
<linearGradient id="paint8_linear_175_600" x1="-11.4961" y1="273.795" x2="138.048" y2="273.795" gradientUnits="userSpaceOnUse">
<stop stop-color="#09EAB2"/>
<stop offset="1" stop-color="#01C0AF"/>
</linearGradient>
<radialGradient id="paint9_radial_175_600" cx="0" cy="0" r="1" gradientUnits="userSpaceOnUse" gradientTransform="translate(-38.0129 161.658) scale(333.962 333.962)">
<stop stop-color="#08E3B1"/>
<stop offset="1" stop-color="#01BFAE"/>
</radialGradient>
<linearGradient id="paint10_linear_175_600" x1="-11.4961" y1="194.389" x2="138.048" y2="194.389" gradientUnits="userSpaceOnUse">
<stop stop-color="#0AEFB2"/>
<stop offset="1" stop-color="#01BFAE"/>
</linearGradient>
<radialGradient id="paint11_radial_175_600" cx="0" cy="0" r="1" gradientUnits="userSpaceOnUse" gradientTransform="translate(-38.0129 82.2511) scale(333.962 333.962)">
<stop stop-color="#01C8EF"/>
<stop offset="0.1396" stop-color="#03BAE4"/>
<stop offset="0.4033" stop-color="#0895C8"/>
<stop offset="0.76" stop-color="#115A9A"/>
<stop offset="1" stop-color="#172F78"/>
</radialGradient>
<radialGradient id="paint12_radial_175_600" cx="0" cy="0" r="1" gradientUnits="userSpaceOnUse" gradientTransform="translate(-8.54359 102.375) scale(229.61 229.61)">
<stop stop-color="#0AEFB2"/>
<stop offset="1" stop-color="#00B8AD"/>
</radialGradient>
<linearGradient id="paint13_linear_175_600" x1="300.248" y1="353.112" x2="449.791" y2="353.112" gradientUnits="userSpaceOnUse">
<stop stop-color="#08E4B2"/>
<stop offset="1" stop-color="#01C0AF"/>
</linearGradient>
<radialGradient id="paint14_radial_175_600" cx="0" cy="0" r="1" gradientUnits="userSpaceOnUse" gradientTransform="translate(341.5 249) scale(197.5 197.5)">
<stop stop-color="#09E7B2"/>
<stop offset="1" stop-color="#01C0AF"/>
</radialGradient>
<linearGradient id="paint15_linear_175_600" x1="300.248" y1="273.705" x2="449.791" y2="273.705" gradientUnits="userSpaceOnUse">
<stop stop-color="#08E4B2"/>
<stop offset="1" stop-color="#01C0AF"/>
</linearGradient>
<radialGradient id="paint16_radial_175_600" cx="0" cy="0" r="1" gradientUnits="userSpaceOnUse" gradientTransform="translate(273.731 161.568) scale(333.962 333.962)">
<stop stop-color="#09E8B2"/>
<stop offset="1" stop-color="#01C0AF"/>
</radialGradient>
<linearGradient id="paint17_linear_175_600" x1="300.248" y1="194.3" x2="525" y2="194" gradientUnits="userSpaceOnUse">
<stop stop-color="#09E9B2"/>
<stop offset="1" stop-color="#01C0AF"/>
</linearGradient>
<radialGradient id="paint18_radial_175_600" cx="0" cy="0" r="1" gradientUnits="userSpaceOnUse" gradientTransform="translate(313 152) scale(212 212)">
<stop stop-color="#08E3B1"/>
<stop offset="1" stop-color="#01BDAE"/>
</radialGradient>
<linearGradient id="paint19_linear_175_600" x1="144.093" y1="443.457" x2="293.637" y2="443.457" gradientUnits="userSpaceOnUse">
<stop stop-color="#0AEFB2"/>
<stop offset="1" stop-color="#00674C"/>
</linearGradient>
<radialGradient id="paint20_radial_175_600" cx="0" cy="0" r="1" gradientUnits="userSpaceOnUse" gradientTransform="translate(117.576 331.319) scale(333.962 333.962)">
<stop stop-color="#0AEFB2"/>
<stop offset="1" stop-color="#005941"/>
</radialGradient>
<linearGradient id="paint21_linear_175_600" x1="144.093" y1="364.05" x2="293.637" y2="364.05" gradientUnits="userSpaceOnUse">
<stop stop-color="#0AEFB2"/>
<stop offset="1" stop-color="#00A076"/>
</linearGradient>
<linearGradient id="paint22_linear_175_600" x1="171.5" y1="251.913" x2="360" y2="251.913" gradientUnits="userSpaceOnUse">
<stop stop-color="#0AEFB2"/>
<stop offset="1" stop-color="#007959"/>
</linearGradient>
<linearGradient id="paint23_linear_175_600" x1="144.093" y1="284.645" x2="293.637" y2="284.645" gradientUnits="userSpaceOnUse">
<stop stop-color="#0AEFB2"/>
<stop offset="0.1297" stop-color="#0AEFB2"/>
<stop offset="0.5466" stop-color="#05CF99"/>
<stop offset="0.8476" stop-color="#008360"/>
<stop offset="1" stop-color="#006A4E"/>
</linearGradient>
<radialGradient id="paint24_radial_175_600" cx="0" cy="0" r="1" gradientUnits="userSpaceOnUse" gradientTransform="translate(117.576 172.507) scale(333.962 333.962)">
<stop stop-color="#01C8EF"/>
<stop offset="0.1396" stop-color="#0AEFB2"/>
<stop offset="0.4033" stop-color="#00C993"/>
<stop offset="0.76" stop-color="#008D68"/>
<stop offset="1" stop-color="#00130E"/>
</radialGradient>
</defs>
</svg>
